<?xml version="1.0" encoding="utf-8"?>
<!-- Generator: Adobe Illustrator 23.0.2, SVG Export Plug-In . SVG Version: 6.00 Build 0)  -->
<svg version="1.1" id="Layer_1" xmlns="http://www.w3.org/2000/svg" xmlns:xlink="http://www.w3.org/1999/xlink" x="0px" y="0px"
	 viewBox="0 0 406 306" style="enable-background:new 0 0 406 306;" xml:space="preserve">
<style type="text/css">
	.st0{opacity:0.15;fill:#6F42C1;enable-background:new    ;}
	.st1{fill:#6F42C1;}
	.st2{fill:url(#SVGID_1_);}
	.st3{fill:url(#SVGID_2_);}
	.st4{fill:url(#SVGID_3_);}
	.st5{fill:url(#SVGID_4_);}
	.st6{fill:#D63384;}
	.st7{fill:url(#SVGID_5_);}
	.st8{fill:url(#SVGID_6_);}
	.st9{fill:#F7AF87;}
	.st10{fill:#606060;}
	.st11{fill:url(#SVGID_7_);}
	.st12{fill:url(#SVGID_8_);}
</style>
<title>404 not found 1</title>
<path class="st0" d="M23.2,240.1c-26.1-27.3-30.9-78.1-10.7-113.4c1.4-2.5,3-4.9,4.6-7.2c8.9-12.1,20.3-19.8,30.1-30.3
	c17-18,29.6-43.9,48.5-57.6c22.8-16.5,50.5-12.2,75.5-3.9s50.2,20.1,75.9,17.1c15.3-1.8,30-8.8,45.2-12.2
	c15.2-3.4,31.8-2.8,44.5,9.1c18.5,17.5,22.8,52.8,38,75.6c7.3,11.1,17.1,18.9,23.6,30.9c10.4,19.3,10.2,48.3-0.6,67.3
	c-13.8,24.2-38.8,28.1-59,41.4c-11.2,7.4-21.3,18.1-32.9,24.3c-24.4,13.1-51.8,4.6-76.8-6c-25-10.6-50.7-23.3-76.6-18.1
	c-24.2,4.9-45.9,25-70.3,28.1c-11.3,1.4-24.2-1.3-31.1-14.5C43.7,256.7,33.3,250.6,23.2,240.1z"/>
<path class="st1" d="M29.8,161.2c6.6-7.3,6.6-7.3,14-16.1l31.7-37.1c7-8,9.8-11.7,13.5-17.4h30c-0.9,8-1.2,16.1-1.2,24.2v47.5h4.2
	c4.9,0,9.7-0.4,14.5-1.2v26.6c-4.7-0.6-9.5-0.9-14.3-0.9h-4.4v7.3c-0.1,6,0.3,12,1.2,17.9H88.9c0.8-6,1.2-12.1,1.2-18.2v-7.2H48.8
	c-9.5,0-13.5,0.1-19,0.6L29.8,161.2z M90.2,145.7c0-6.6,0.3-14.6,0.9-21c-2.9,4.1-5.1,7-9,12l-21.3,26h29.5V145.7z"/>
<linearGradient id="SVGID_1_" gradientUnits="userSpaceOnUse" x1="-51.2692" y1="230.7934" x2="276.6607" y2="47.2934" gradientTransform="matrix(0.9665 0 0 -0.9665 -13.5247 285.1555)">
	<stop  offset="0" style="stop-color:#000000;stop-opacity:0"/>
	<stop  offset="0.99" style="stop-color:#000000"/>
</linearGradient>
<path class="st2" d="M29.8,161.2c6.6-7.3,6.6-7.3,14-16.1l31.7-37.1c7-8,9.8-11.7,13.5-17.4h30c-0.9,8-1.2,16.1-1.2,24.2v47.5h4.2
	c4.9,0,9.7-0.4,14.5-1.2v26.6c-4.7-0.6-9.5-0.9-14.3-0.9h-4.4v7.3c-0.1,6,0.3,12,1.2,17.9H88.9c0.8-6,1.2-12.1,1.2-18.2v-7.2H48.8
	c-9.5,0-13.5,0.1-19,0.6L29.8,161.2z M90.2,145.7c0-6.6,0.3-14.6,0.9-21c-2.9,4.1-5.1,7-9,12l-21.3,26h29.5V145.7z"/>
<path class="st1" d="M192.2,124.6c2.9,0.5,5.6,2.3,8.5,2.9c2.5,0.6,5.2,0.3,7.7,1.2c4.7,1.7,7.7,7.3,8.4,13
	c0.7,5.7-0.5,11.4-1.9,16.9c-3.6,14.5-8.4,29-17.1,40c-0.6,0.8-1.3,1.6-2.2,1.5c-0.6-0.1-1.2-0.4-1.7-0.8c-1.8-1.3-3.5-2.7-5-4.4
	c-2.3-2.8-3.7-6.5-4.8-10.1c-3.3-10.3-9.6-16.8-10.8-27.7C172.1,145.7,178.4,122.3,192.2,124.6z"/>
<linearGradient id="SVGID_2_" gradientUnits="userSpaceOnUse" x1="230.884" y1="138.1894" x2="129.044" y2="75.5194" gradientTransform="matrix(0.9665 0 0 -0.9665 -13.5247 285.1555)">
	<stop  offset="0" style="stop-color:#000000;stop-opacity:0"/>
	<stop  offset="0.99" style="stop-color:#000000"/>
</linearGradient>
<path class="st3" d="M182.8,131.9c-1.2-0.2-2.5,0-3.6,0.6c-2.3,1.4-3.9,3.7-4.4,6.3c-0.5,2.6-0.6,5.3-0.3,7.9
	c0.7,7.7,2.2,15.4,4.5,22.8c0.7,2.1-1.3,7.2,0.1,9c1.1,1.4,0.6,10,2.1,11.1c4.1,3,12.7,1.3,16.8,4.3c5.3,3.9,5-6.3,4.1-10.5
	c-1-4.7-8.2-3.9-13.8-19.7C181,142.7,184.7,132.4,182.8,131.9z"/>
<path class="st1" d="M255.1,160.7c6.6-7.3,6.6-7.3,14-16.1l31.7-37.1c4.9-5.4,9.5-11.3,13.5-17.4h30c-0.9,8-1.2,16.1-1.2,24.2v47.4
	h4.2c4.8-0.1,9.7-0.4,14.4-1.2v26.6c-4.7-0.6-9.5-0.9-14.3-0.9h-4.4v7.3c-0.1,6,0.3,12,1.2,17.9h-30.1c0.8-6,1.2-12.1,1.2-18.2v-7.2
	h-41.3c-9.5,0-13.6,0.1-19,0.6V160.7z M315.5,145.2c0-6.6,0.3-14.6,0.9-21c-2.9,4.1-5.1,7-9,12l-21.3,26h29.5L315.5,145.2z"/>
<linearGradient id="SVGID_3_" gradientUnits="userSpaceOnUse" x1="439.0815" y1="53.728" x2="151.0814" y2="299.248" gradientTransform="matrix(0.9665 0 0 -0.9665 -13.5247 285.1555)">
	<stop  offset="0" style="stop-color:#000000;stop-opacity:0"/>
	<stop  offset="0.99" style="stop-color:#000000"/>
</linearGradient>
<path class="st4" d="M255.1,160.7c6.6-7.3,6.6-7.3,14-16.1l31.7-37.1c4.9-5.4,9.5-11.3,13.5-17.4h30c-0.9,8-1.2,16.1-1.2,24.2v47.4
	h4.2c4.8-0.1,9.7-0.4,14.4-1.2v26.6c-4.7-0.6-9.5-0.9-14.3-0.9h-4.4v7.3c-0.1,6,0.3,12,1.2,17.9h-30.1c0.8-6,1.2-12.1,1.2-18.2v-7.2
	h-41.3c-9.5,0-13.6,0.1-19,0.6V160.7z M315.5,145.2c0-6.6,0.3-14.6,0.9-21c-2.9,4.1-5.1,7-9,12l-21.3,26h29.5L315.5,145.2z"/>
<path class="st1" d="M160.7,200.1c-4.7-4.6-8.3-10.1-10.6-16.2c-3.8-10.7-5.8-22-5.7-33.4c0-15.3,3.7-31.2,9.2-40.4
	C162.5,95.2,177.6,87,196,87c14.2,0,26.6,4.8,35.5,13.5c4.7,4.6,8.3,10.1,10.6,16.2c3.9,10.8,5.8,22.1,5.7,33.6
	c0,15.3-3.6,31.4-9.2,40.6c-8.8,14.6-24.1,22.8-42.6,22.8C181.7,213.7,169.6,209,160.7,200.1z M174.2,149.3
	c0,26.1,7.4,39.5,21.9,39.5c14.4,0,21.6-13.1,21.6-39.1c0-25-7.6-38.1-21.7-38.1C182.3,111.7,174.3,125.5,174.2,149.3L174.2,149.3z"
	/>
<linearGradient id="SVGID_4_" gradientUnits="userSpaceOnUse" x1="309.613" y1="135.7194" x2="-4.437" y2="148.4594" gradientTransform="matrix(0.9665 0 0 -0.9665 -13.5247 285.1555)">
	<stop  offset="0" style="stop-color:#000000;stop-opacity:0"/>
	<stop  offset="0.99" style="stop-color:#000000"/>
</linearGradient>
<path class="st5" d="M160.7,200.1c-4.7-4.6-8.3-10.1-10.6-16.2c-3.8-10.7-5.8-22-5.7-33.4c0-15.3,3.7-31.2,9.2-40.4
	C162.5,95.2,177.6,87,196,87c14.2,0,26.6,4.8,35.5,13.5c4.7,4.6,8.3,10.1,10.6,16.2c3.9,10.8,5.8,22.1,5.7,33.6
	c0,15.3-3.6,31.4-9.2,40.6c-8.8,14.6-24.1,22.8-42.6,22.8C181.7,213.7,169.6,209,160.7,200.1z M174.2,149.3
	c0,26.1,7.4,39.5,21.9,39.5c14.4,0,21.6-13.1,21.6-39.1c0-25-7.6-38.1-21.7-38.1C182.3,111.7,174.3,125.5,174.2,149.3L174.2,149.3z"
	/>
<path class="st1" d="M33.1,160.7c6.6-7.3,6.6-7.3,14-16.1l31.7-37.1c4.9-5.4,9.5-11.3,13.5-17.4h30c-0.9,8-1.2,16.1-1.2,24.2v47.4
	h4.2c4.9-0.1,9.7-0.4,14.5-1.2v26.6c-4.7-0.6-9.5-0.9-14.3-0.9h-4.4v7.3c-0.1,6,0.3,12,1.2,17.9H92.2c0.8-6,1.2-12.1,1.2-18.2v-7.2
	H52c-9.5,0-13.5,0.1-19,0.6L33.1,160.7z M93.5,145.2c0-6.6,0.3-14.6,0.9-21c-2.9,4.1-5.1,7-9,12l-21.3,26h29.4V145.2z"/>
<path class="st6" d="M164,200.6c-4.7-4.6-8.3-10.1-10.6-16.2c-3.9-10.7-5.8-22-5.7-33.4c0-15.3,3.7-31.2,9.2-40.4
	c8.9-14.9,24.1-23.1,42.5-23.1c14.1,0,26.6,4.8,35.5,13.5c4.7,4.6,8.3,10.1,10.6,16.2c3.9,10.8,5.8,22.1,5.7,33.6
	c0,15.3-3.6,31.4-9.2,40.6c-8.8,14.6-24.1,22.8-42.6,22.8C185,214.2,172.9,209.5,164,200.6z M177.6,149.9c0,26.1,7.4,39.5,21.9,39.5
	c14.3,0,21.6-13.1,21.6-39.1c0-25-7.6-38.1-21.7-38.1C185.6,112.2,177.6,126.1,177.6,149.9z"/>
<linearGradient id="SVGID_5_" gradientUnits="userSpaceOnUse" x1="272.9608" y1="197.5628" x2="182.7608" y2="101.0028" gradientTransform="matrix(0.9665 0 0 -0.9665 -13.5247 285.1555)">
	<stop  offset="0" style="stop-color:#000000;stop-opacity:0"/>
	<stop  offset="0.99" style="stop-color:#000000"/>
</linearGradient>
<path class="st7" d="M223.1,99.1c2.2,1.6,3.3,4.4,2.6,7.1c3.7,0.4,7.1,2.2,9.4,5c2.1,2.7,3.3,6,3.6,9.4c0.3,3.4,0.2,6.8-0.2,10.2
	c0,1.2-0.3,2.3-0.7,3.4c-1,1.9-2.8,3.3-5,3.7c-2.1,0.4-4.2,0.5-6.4,0.3l-5.1-0.3c-0.2,0-0.3,0-0.5-0.1c-0.2-0.2-0.3-0.4-0.3-0.7
	c-0.3-2.1-0.9-3-1.3-5.1c-0.9-4.4-2.8-8.5-5.4-12.2c-0.5-0.5-0.8-1.2-1-1.9c-0.1-1,0.2-1.9,0.6-2.8c0.7-1.7,1.3-3.4,1.7-5.1
	c0.4-2.1,0.9-4.1,1.6-6.2c0.7-2,2-3.8,3.9-4.9"/>
<linearGradient id="SVGID_6_" gradientUnits="userSpaceOnUse" x1="260.1345" y1="122.6063" x2="246.9145" y2="184.9663" gradientTransform="matrix(0.9665 0 0 -0.9665 -13.5247 285.1555)">
	<stop  offset="0" style="stop-color:#000000;stop-opacity:0"/>
	<stop  offset="0.99" style="stop-color:#000000"/>
</linearGradient>
<path class="st8" d="M220.7,159.8c0,0,18.6,1.6,27.1-9.7c3.4-4.5-4.2-25.6-4.2-25.6l-8.6,15.3l-13.5,3.1L220.7,159.8z"/>
<path class="st1" d="M258.7,160.7c6.6-7.3,6.6-7.3,14-16.1l31.7-37.1c7-8,9.8-11.7,13.5-17.4h30c-0.8,8.1-1.2,16.2-1.1,24.3v47.4
	h4.2c4.8-0.1,9.7-0.4,14.4-1.2v26.6c-4.7-0.6-9.5-0.9-14.3-0.9h-4.4v7.3c-0.1,6,0.3,12,1.2,17.9h-30.1c0.8-6,1.2-12.1,1.2-18.2v-7.2
	h-41.3c-9.5,0-13.6,0.1-19,0.6L258.7,160.7z M319.1,145.2c0-6.6,0.3-14.6,0.9-21c-2.9,4.1-5.1,7-9,12l-21.3,26h29.5L319.1,145.2z"/>
<path class="st9" d="M177.1,126.8c-0.5,0.2-1,0.4-1.4,0.7c-0.4,0.2-0.8,0.5-1.1,0.9c-0.3,0.4-0.4,0.9-0.2,1.4
	c0.4,0.6,1.1,0.9,1.9,0.8c1.2-0.1,2.3-0.7,3.5-0.9s2.3-1,1.5-2.3C180.3,126,178.3,126.3,177.1,126.8z"/>
<path class="st9" d="M180.9,129.6c-1.7-0.5-3.6,0.3-5.1,1.2c-0.4,0.2-0.7,0.4-1,0.7c-0.4,0.3-0.5,0.9-0.2,1.4
	c0.2,0.2,0.5,0.4,0.8,0.4c0.4,0,0.7,0,1.1-0.1l2.4-0.4c0.6-0.1,1.1-0.2,1.6-0.5C181.7,131.7,182.6,130,180.9,129.6z"/>
<path class="st9" d="M177.6,132.8c-0.5,0.2-1,0.4-1.4,0.7c-0.4,0.2-0.8,0.6-1.1,1c-0.3,0.4-0.4,0.9-0.2,1.4c0.4,0.6,1.1,0.9,1.9,0.8
	c1.2-0.1,2.3-0.7,3.5-0.9s2.3-1,1.5-2.3C180.8,132.1,178.7,132.4,177.6,132.8z"/>
<path class="st9" d="M181.3,135.2c-1.8-0.1-3.4,1-4.8,2.1c-0.3,0.2-0.6,0.6-0.8,0.9c-0.3,0.4-0.3,1,0.1,1.4c0.2,0.2,0.6,0.3,0.9,0.2
	c0.4,0,0.7-0.1,1-0.3l2.3-0.8c0.5-0.2,1.1-0.4,1.5-0.7C182.4,137.2,183.1,135.4,181.3,135.2z"/>
<path class="st9" d="M232.6,108c-2.8-1.3-5.9-2-9-1.9c-0.5,0-1.1,0.1-1.5,0.3c-0.5,0.2-0.8,0.7-0.8,1.2c0.1,0.5,0.4,0.9,0.7,1.1
	c1.1,1,2.4,1.9,3.8,2.6c0.4,0.2,0.8,0.4,1.1,0.7c0.3,0.3,0.4,0.8,0.2,1.2c-0.3,0.4-1.1,0.5-1.3,1c-0.3,0.6,0.5,1.2,1.2,1.4
	c0.7,0.1,1.5,0.1,2.2-0.2c0.5-0.3,1-0.4,1.6-0.4c0.5,0.1,1.1,0.4,1.5,0.7c1.5,0.9,6.3,0.9,6-1.7C237.9,111.4,234.5,109,232.6,108z"
	/>
<path class="st1" d="M209.2,129.3c0,0,21.4,8.8,23.8,8.4s-1.5-21.5-1.5-21.5l7.3-3.3c0,0,16.4,32.6,3,37.3
	c-8.3,2.8-17.3,2.7-25.6-0.3L209.2,129.3z"/>
<path class="st9" d="M220.6,117c-0.1,1.9-0.5,3.8-1.3,5.5c-1.6,2.6-4.3,4.3-7.3,4.6c-1.1,0.1-2.2,0.2-3.2,0.5
	c-1,0.2-1.8,0.9-2.2,1.8c-0.9,2.1-1.7,4.2-4.5,3.5c-0.3-0.1-0.5-0.1-0.8-0.3c-0.9-0.4-1.7-1-2.3-1.7c-0.8-0.8-1.5-1.7-2.1-2.7
	c-0.3-0.5-0.5-1-0.6-1.5c-0.1-0.7,0-1.3,0.2-2c1-3.9,1.1-8.2,2.5-12c1.4-3.8,4.1-7,7.6-9.1c3.5-2,8.3-2,11.2,0.7
	c1.6,1.6,2.6,3.7,2.9,6C220.9,112.5,220.9,114.8,220.6,117z"/>
<path class="st10" d="M197.1,112.2c0.2-1.8,0.2-3.7,0.5-5.5c0.3-1.8,1.2-3.5,2.6-4.7c0.4-0.3,0.7-0.5,1.2-0.7
	c0.4-0.1,0.8-0.2,1.2-0.3c1.1-0.4,2.2-0.9,3.2-1.6c1.5-0.9,3.2-1.6,4.9-1.9c1.2-0.2,2.4-0.3,3.6-0.3c2.2,0,4.4-0.1,6.6-0.1
	c0.5,0,1,0,1.5,0.3c0.5,0.3,0.9,0.8,1.1,1.4c0.4,1.3,0.4,2.8,0,4.1c-0.4,1.3-1,2.6-1.7,3.8c-0.3,0.8-0.8,1.4-1.4,2
	c-0.5-0.9-1-1.8-1.4-2.7c-1.5,1.5-3.8,1.9-5.9,1.8c-2.1-0.2-4.2-0.7-6.3-0.7c-1-0.1-2,0.2-2.8,0.8c-0.5,0.6-0.8,1.2-1,1.9
	c-0.4,1.6-0.8,3.2-1.1,4.8c-0.3-0.5-1.3-1.7-1.8-1.7c-0.3,0-0.6,0.2-0.8,0.4c-0.9,1-0.4,4.5,0.4,5.5c0.2,0.2,0.3,0.3,0.4,0.6
	c0,0.3-0.1,0.6-0.2,0.8c-0.5,0.5-1.1,0.8-1.8,0.8c-0.9,0-1-1.6-1.1-2.2C196.3,116.7,196.8,114.4,197.1,112.2z"/>
<linearGradient id="SVGID_7_" gradientUnits="userSpaceOnUse" x1="220.3675" y1="174.5398" x2="222.9575" y2="175.4398" gradientTransform="matrix(0.9665 0 0 -0.9665 -13.5247 285.1555)">
	<stop  offset="0" style="stop-color:#000000;stop-opacity:0"/>
	<stop  offset="0.99" style="stop-color:#000000"/>
</linearGradient>
<path class="st11" d="M200.5,116.3c-0.1-0.2-0.2-0.5-0.2-0.8c0-0.3,0-0.6-0.1-0.8c-0.1-0.2-0.3-0.4-0.5-0.6c-0.1,0-0.1,0-0.2,0
	c-0.1,0-0.2,0.1-0.2,0.3c-0.3,1.1-0.3,2.2,0.1,3.2c0.1,0.4,0.4,0.7,0.7,0.8c0.3,0.1,0.7,0,0.9-0.3c0.3-0.3,0.4-0.8,0.3-1.2
	C201.1,116.5,200.7,116.6,200.5,116.3z"/>
<linearGradient id="SVGID_8_" gradientUnits="userSpaceOnUse" x1="221.0416" y1="164.558" x2="236.3315" y2="152.028" gradientTransform="matrix(0.9665 0 0 -0.9665 -13.5247 285.1555)">
	<stop  offset="0" style="stop-color:#000000;stop-opacity:0"/>
	<stop  offset="0.99" style="stop-color:#000000"/>
</linearGradient>
<path class="st12" d="M208.7,127.6c-1,0.2-1.8,0.9-2.2,1.8c-0.9,2.1-1.7,4.2-4.5,3.5c-0.3-0.1-0.5-0.1-0.8-0.3
	c-0.2-0.2-0.4-0.4-0.6-0.7c-0.3-0.7-0.2-1.4,0.1-2c0.7-1.7,2.3-2.8,4.1-2.8c0.7,0,1.5,0.1,2.2,0.3c0.4,0.1,1,0,1.4,0
	C208.5,127.4,208.6,127.5,208.7,127.6z"/>
</svg>
