<?xml version="1.0" encoding="utf-8"?>
<!-- Generator: Adobe Illustrator 26.0.1, SVG Export Plug-In . SVG Version: 6.00 Build 0)  -->
<svg version="1.1" id="Layer_1" xmlns="http://www.w3.org/2000/svg" xmlns:xlink="http://www.w3.org/1999/xlink" x="0px" y="0px"
	 viewBox="0 0 925.9 175.4" style="enable-background:new 0 0 925.9 175.4;" xml:space="preserve">
<style type="text/css">
	.st0{fill:#FFFFFF;}
</style>
<path class="st0" d="M24.6,131V49.2c0-4.53,0.8-7.37,2.4-8.5c1.6-1.13,4.93-1.7,10-1.7h25l23.4,52.2l0.4,2l0.4-0.2l0.4-2l22.6-52
	h26.6c4.8,0,7.9,0.67,9.3,2c1.4,1.33,2.1,4.07,2.1,8.2v71.6c0,3.33-0.33,5.7-1,7.1c-0.67,1.4-1.87,2.27-3.6,2.6
	c-1.73,0.33-4.27,0.5-7.6,0.5h-20.6V74.2l-1.4,5.6L90.8,131H71L49,80.4l-1.2-5.6V131H24.6z M209.4,132c-9.33,0-16.87-0.3-22.6-0.9
	c-5.73-0.6-10.17-1.77-13.3-3.5c-3.13-1.73-5.23-4.2-6.3-7.4c-1.07-3.2-1.6-7.33-1.6-12.4c0-6.8,0.67-11.97,2-15.5
	c1.33-3.53,3.67-5.97,7-7.3c3.33-1.33,7.8-2,13.4-2c3.33,0,7.17,0.03,11.5,0.1c4.33,0.07,8.6,0.17,12.8,0.3
	c4.2,0.13,7.87,0.37,11,0.7c3.13,0.33,5.3,0.63,6.5,0.9c0-4.13-0.37-7.4-1.1-9.8c-0.73-2.4-1.9-4.23-3.5-5.5
	c-1.6-1.27-3.73-2.1-6.4-2.5c-2.67-0.4-5.93-0.6-9.8-0.6c-4.67,0-9.3,0.07-13.9,0.2c-4.6,0.13-9.07,0.4-13.4,0.8
	c-4.33,0.4-8.3,0.87-11.9,1.4v-5.6c0-3.6,0.8-6.27,2.4-8c1.6-1.73,3.8-2.87,6.6-3.4c3.07-0.67,7.63-1.13,13.7-1.4
	c6.07-0.27,12.63-0.4,19.7-0.4c8.93,0,16.43,0.47,22.5,1.4c6.07,0.93,10.83,2.6,14.3,5c3.47,2.4,5.93,5.97,7.4,10.7
	c1.47,4.73,2.2,11.03,2.2,18.9V126c-2.13,2-7.43,3.5-15.9,4.5C234.23,131.5,223.13,132,209.4,132z M209.2,119.6
	c3.73,0,6.9-0.1,9.5-0.3c2.6-0.2,4.83-0.5,6.7-0.9c1.87-0.4,3.33-0.87,4.4-1.4V94.6c-1.47-0.4-3.5-0.73-6.1-1
	c-2.6-0.27-5.23-0.47-7.9-0.6c-2.67-0.13-4.73-0.2-6.2-0.2c-3.2,0-5.8,0.27-7.8,0.8c-2,0.53-3.43,1.73-4.3,3.6
	c-0.87,1.87-1.3,4.73-1.3,8.6c0,3.33,0.33,6.03,1,8.1c0.67,2.07,1.93,3.53,3.8,4.4C202.86,119.17,205.6,119.6,209.2,119.6z
	 M304.6,131H283c-2.93,0-5.07-0.73-6.4-2.2c-1.33-1.47-2-4.4-2-8.8V55.2c3.73-0.93,9.17-1.93,16.3-3c7.13-1.07,15.17-1.6,24.1-1.6
	c9.33,0,16.7,0.53,22.1,1.6c5.4,1.07,9.37,2.7,11.9,4.9c2.53,2.2,4.17,5,4.9,8.4c0.73,3.4,1.1,7.5,1.1,12.3h-28.6V75
	c0-3.2-0.57-5.53-1.7-7c-1.13-1.47-2.5-2.4-4.1-2.8c-1.6-0.4-3.27-0.6-5-0.6c-2.67,0-4.97,0.27-6.9,0.8c-1.93,0.53-3.3,1.33-4.1,2.4
	V131z M369.2,150.8c-5.07,0-9.47-0.27-13.2-0.8c-3.73-0.53-6.13-0.87-7.2-1v-11c0.93,0.27,2.43,0.5,4.5,0.7
	c2.07,0.2,3.7,0.3,4.9,0.3c4.53,0,7.27-1.13,8.2-3.4c0.93-2.27,1.4-6.07,1.4-11.4V61.8c0-2.93,0.27-5.13,0.8-6.6
	c0.53-1.47,1.53-2.5,3-3.1c1.47-0.6,3.73-0.9,6.8-0.9h19.2l0.2,75.8c0,5.6-0.73,10.17-2.2,13.7c-1.47,3.53-4.27,6.1-8.4,7.7
	C383.06,150,377.06,150.8,369.2,150.8z M383.2,41.6c-4.67,0-8-0.6-10-1.8c-2-1.2-3-3.4-3-6.6c0-3.2,1.03-5.43,3.1-6.7
	c2.07-1.27,5.5-1.9,10.3-1.9c4.53,0.13,7.77,0.8,9.7,2c1.93,1.2,2.83,3.4,2.7,6.6c0,3.2-0.9,5.4-2.7,6.6
	C391.5,41,388.13,41.6,383.2,41.6z M438.2,131.8c-8.93,0-15.13-1.73-18.6-5.2c-3.47-3.47-5.2-9.13-5.2-17l0.2-58.4h29.8v57.2
	c0,4.13,0.63,7.1,1.9,8.9c1.27,1.8,3.37,2.7,6.3,2.7c1.73,0,3.2-0.13,4.4-0.4c1.2-0.27,1.93-0.47,2.2-0.6v11
	c-0.53,0.13-1.53,0.33-3,0.6c-1.47,0.27-3.6,0.53-6.4,0.8C447,131.67,443.13,131.8,438.2,131.8z M429.8,41.6c-4.67,0-8-0.6-10-1.8
	c-2-1.2-3-3.4-3-6.6c0-3.2,1.03-5.43,3.1-6.7c2.07-1.27,5.5-1.9,10.3-1.9c4.53,0.13,7.77,0.8,9.7,2c1.93,1.2,2.83,3.4,2.7,6.6
	c0,3.2-0.9,5.4-2.7,6.6C438.1,41,434.73,41.6,429.8,41.6z M511.39,132c-9.33,0-16.87-0.3-22.6-0.9c-5.73-0.6-10.17-1.77-13.3-3.5
	c-3.13-1.73-5.23-4.2-6.3-7.4c-1.07-3.2-1.6-7.33-1.6-12.4c0-6.8,0.67-11.97,2-15.5c1.33-3.53,3.67-5.97,7-7.3
	c3.33-1.33,7.8-2,13.4-2c3.33,0,7.17,0.03,11.5,0.1c4.33,0.07,8.6,0.17,12.8,0.3c4.2,0.13,7.87,0.37,11,0.7
	c3.13,0.33,5.3,0.63,6.5,0.9c0-4.13-0.37-7.4-1.1-9.8c-0.73-2.4-1.9-4.23-3.5-5.5c-1.6-1.27-3.73-2.1-6.4-2.5
	c-2.67-0.4-5.93-0.6-9.8-0.6c-4.67,0-9.3,0.07-13.9,0.2c-4.6,0.13-9.07,0.4-13.4,0.8c-4.33,0.4-8.3,0.87-11.9,1.4v-5.6
	c0-3.6,0.8-6.27,2.4-8c1.6-1.73,3.8-2.87,6.6-3.4c3.07-0.67,7.63-1.13,13.7-1.4c6.07-0.27,12.63-0.4,19.7-0.4
	c8.93,0,16.43,0.47,22.5,1.4c6.07,0.93,10.83,2.6,14.3,5c3.47,2.4,5.93,5.97,7.4,10.7c1.47,4.73,2.2,11.03,2.2,18.9V126
	c-2.13,2-7.43,3.5-15.9,4.5C536.23,131.5,525.12,132,511.39,132z M511.19,119.6c3.73,0,6.9-0.1,9.5-0.3c2.6-0.2,4.83-0.5,6.7-0.9
	c1.87-0.4,3.33-0.87,4.4-1.4V94.6c-1.47-0.4-3.5-0.73-6.1-1c-2.6-0.27-5.23-0.47-7.9-0.6c-2.67-0.13-4.73-0.2-6.2-0.2
	c-3.2,0-5.8,0.27-7.8,0.8c-2,0.53-3.43,1.73-4.3,3.6c-0.87,1.87-1.3,4.73-1.3,8.6c0,3.33,0.33,6.03,1,8.1
	c0.67,2.07,1.93,3.53,3.8,4.4C504.86,119.17,507.59,119.6,511.19,119.6z M891.3,24.6H595.86c-5.52,0-10,4.48-10,10v106.2
	c0,5.52,4.48,10,10,10H891.3c5.52,0,10-4.48,10-10V34.6C901.3,29.08,896.83,24.6,891.3,24.6z M679.31,122.12h-68.85v-60.9
	c0-1.8,0.12-3.3,0.38-4.5c0.25-1.2,0.92-2.1,2.03-2.7c1.1-0.6,3-0.9,5.7-0.9h16.5v56.1h44.25V122.12z M781.46,114.47
	c0,2.5-0.25,4.27-0.75,5.32c-0.5,1.05-1.4,1.7-2.7,1.95c-1.3,0.25-3.2,0.38-5.7,0.38h-15.45v-42.6l-1.05,4.2l-16.65,38.4H724.3
	l-16.5-37.95l-0.9-4.2v42.15h-17.4V60.77c0-3.4,0.6-5.52,1.8-6.38c1.2-0.85,3.7-1.27,7.5-1.27h18.75l17.55,39.15l0.3,1.5l0.3-0.15
	l0.3-1.5l16.95-39h19.95c3.6,0,5.92,0.5,6.97,1.5c1.05,1,1.58,3.05,1.58,6.15V114.47z M873.4,112.6c-2.2,3.25-5.23,5.62-9.08,7.12
	c-3.85,1.5-8.32,2.4-13.42,2.7c-4.8,0.3-9.35,0.45-13.65,0.45c-4.3,0-8.85,0-13.65,0c-4-0.1-7.68-0.28-11.03-0.52
	c-3.35-0.25-6.28-0.7-8.77-1.35c-2.5-0.65-4.42-1.55-5.78-2.7c-1.35-1.15-2.02-2.67-2.02-4.57v-7.95c2.5,1.1,5.7,1.93,9.6,2.48
	c3.9,0.55,7.95,0.88,12.15,0.98c4.2,0.1,7.9,0.15,11.1,0.15c1.2,0,2.72,0,4.58,0c1.85,0,3.38-0.05,4.58-0.15c2.7,0,5-0.27,6.9-0.83
	c1.9-0.55,3.32-1.42,4.28-2.62c0.95-1.2,1.42-2.9,1.42-5.1c0-2.6-0.75-4.32-2.25-5.17c-1.5-0.85-3.8-1.27-6.9-1.27
	c-1.1,0-2.38,0-3.82,0c-1.45,0-3.28,0-5.48,0c-2.2,0-5.05,0-8.55,0c-3.2,0-6.43-0.15-9.67-0.45c-3.25-0.3-6.18-1.02-8.78-2.17
	c-2.6-1.15-4.68-3-6.22-5.55c-1.55-2.55-2.33-6.07-2.33-10.57c0-5.4,0.92-9.62,2.78-12.68c1.85-3.05,4.45-5.32,7.8-6.82
	c3.35-1.5,7.35-2.45,12-2.85c4.65-0.4,9.77-0.6,15.38-0.6c3.4,0,7.07,0.05,11.02,0.15c3.95,0.1,7.65,0.25,11.1,0.45
	c3.45,0.2,6.12,0.55,8.02,1.05c3.4,0.2,6.02,1.1,7.88,2.7c1.85,1.6,2.78,3.6,2.78,6c0,0.4,0,1.08,0,2.02c0,0.95,0,1.88,0,2.77
	c0,0.9,0,1.4,0,1.5c-0.8-0.7-2.28-1.27-4.42-1.72c-2.15-0.45-4.65-0.77-7.5-0.98c-2.85-0.2-5.65-0.35-8.4-0.45
	c-2.75-0.1-5.17-0.15-7.27-0.15h-13.5c-2.7,0-4.98,0.23-6.83,0.67c-1.85,0.45-3.23,1.23-4.12,2.33c-0.9,1.1-1.35,2.65-1.35,4.65
	c0,1.6,0.3,2.88,0.9,3.83c0.6,0.95,1.55,1.63,2.85,2.02c1.3,0.4,3,0.6,5.1,0.6c6.1,0,11,0,14.7,0c3.7,0,6.1,0,7.2,0
	c4.8,0,9,0.4,12.6,1.2c3.6,0.8,6.4,2.6,8.4,5.4c2,2.8,3,7.1,3,12.9C876.7,104.98,875.6,109.35,873.4,112.6z"/>
</svg>
